<svg width="90" height="36" viewBox="0 0 90 36" fill="none" xmlns="http://www.w3.org/2000/svg">
<path d="M5.922 9.714C6.48867 8.83 7.27067 8.116 8.268 7.572C9.26533 7.028 10.4327 6.756 11.77 6.756C13.334 6.756 14.7507 7.15267 16.02 7.946C17.2893 8.73933 18.2867 9.87267 19.012 11.346C19.76 12.8193 20.134 14.5307 20.134 16.48C20.134 18.4293 19.76 20.152 19.012 21.648C18.2867 23.1213 17.2893 24.266 16.02 25.082C14.7507 25.8753 13.334 26.272 11.77 26.272C10.4553 26.272 9.288 26 8.268 25.456C7.27067 24.912 6.48867 24.2093 5.922 23.348V35.044H0.108V7.028H5.922V9.714ZM14.218 16.48C14.218 15.0293 13.81 13.896 12.994 13.08C12.2007 12.2413 11.2147 11.822 10.036 11.822C8.88 11.822 7.894 12.2413 7.078 13.08C6.28467 13.9187 5.888 15.0633 5.888 16.514C5.888 17.9647 6.28467 19.1093 7.078 19.948C7.894 20.7867 8.88 21.206 10.036 21.206C11.192 21.206 12.178 20.7867 12.994 19.948C13.81 19.0867 14.218 17.9307 14.218 16.48ZM28.9982 0.84V26H23.1842V0.84H28.9982ZM32.0555 16.48C32.0555 14.5307 32.4182 12.8193 33.1435 11.346C33.8915 9.87267 34.9002 8.73933 36.1695 7.946C37.4388 7.15267 38.8555 6.756 40.4195 6.756C41.7568 6.756 42.9242 7.028 43.9215 7.572C44.9415 8.116 45.7235 8.83 46.2675 9.714V7.028H52.0815V26H46.2675V23.314C45.7008 24.198 44.9075 24.912 43.8875 25.456C42.8902 26 41.7228 26.272 40.3855 26.272C38.8442 26.272 37.4388 25.8753 36.1695 25.082C34.9002 24.266 33.8915 23.1213 33.1435 21.648C32.4182 20.152 32.0555 18.4293 32.0555 16.48ZM46.2675 16.514C46.2675 15.0633 45.8595 13.9187 45.0435 13.08C44.2502 12.2413 43.2755 11.822 42.1195 11.822C40.9635 11.822 39.9775 12.2413 39.1615 13.08C38.3682 13.896 37.9715 15.0293 37.9715 16.48C37.9715 17.9307 38.3682 19.0867 39.1615 19.948C39.9775 20.7867 40.9635 21.206 42.1195 21.206C43.2755 21.206 44.2502 20.7867 45.0435 19.948C45.8595 19.1093 46.2675 17.9647 46.2675 16.514ZM67.8477 6.824C70.069 6.824 71.837 7.54933 73.1517 9C74.489 10.428 75.1577 12.4 75.1577 14.916V26H69.3777V15.698C69.3777 14.4287 69.049 13.4427 68.3917 12.74C67.7344 12.0373 66.8504 11.686 65.7397 11.686C64.629 11.686 63.745 12.0373 63.0877 12.74C62.4304 13.4427 62.1017 14.4287 62.1017 15.698V26H56.2877V7.028H62.1017V9.544C62.691 8.70533 63.4844 8.048 64.4817 7.572C65.479 7.07333 66.601 6.824 67.8477 6.824ZM89.7718 21.07V26H86.8138C84.7058 26 83.0625 25.49 81.8838 24.47C80.7052 23.4273 80.1158 21.7387 80.1158 19.404V11.856H77.8038V7.028H80.1158V2.404H85.9298V7.028H89.7378V11.856H85.9298V19.472C85.9298 20.0387 86.0658 20.4467 86.3378 20.696C86.6098 20.9453 87.0632 21.07 87.6978 21.07H89.7718Z" fill="#155B0A"/>
</svg>
